<svg width="16" height="16" viewBox="-7.5 992.5 16 16" id="pinterest--light" x="672" y="672" xmlns="http://www.w3.org/2000/svg"><path
  fill="#FFF"
  d="M6.688 997.759c0 3.609-2.001 6.297-4.946 6.297-1 0-1.93-.516-2.258-1.125 0 0-.523 2.109-.648 2.516-.391 1.445-1.555 2.891-1.649 3-.078.094-.203.055-.227-.038-.016-.188-.312-2.017.039-3.501.164-.742 1.164-5 1.164-5s-.273-.594-.273-1.461c0-1.376.773-2.376 1.757-2.376.836 0 1.243.617 1.243 1.376 0 .835-.539 2.094-.821 3.258-.219.984.5 1.781 1.469 1.781 1.742 0 2.906-2.242 2.906-4.891 0-2.024-1.352-3.524-3.813-3.524-2.796 0-4.539 2.079-4.539 4.391 0 .82.243 1.376.61 1.821.164.203.188.273.132.5-.039.18-.148.586-.188.733-.055.243-.242.321-.461.243-1.281-.539-1.875-1.945-1.875-3.516 0-2.609 2.188-5.743 6.555-5.743 3.526 0 5.823 2.54 5.823 5.259z"/></svg>
