<svg width="16" height="16" viewBox="-7.5 992.5 16 16" id="instagram--light" x="416" y="416" xmlns="http://www.w3.org/2000/svg"><path
  fill="#FFF"
  d="M8.5 994.836v11.328a2.337 2.337 0 0 1-2.336 2.336H-5.164a2.337 2.337 0 0 1-2.336-2.336v-11.328a2.337 2.337 0 0 1 2.336-2.336H6.164a2.337 2.337 0 0 1 2.336 2.336zM6.836 999.5H5.062c.07.32.102.656.102 1 0 2.578-2.086 4.664-4.664 4.664s-4.664-2.086-4.664-4.664c0-.344.031-.68.102-1h-1.773v7c0 .188.148.336.336.336h12a.333.333 0 0 0 .336-.336v-7zm-9.336 1a3.001 3.001 0 0 0 6 0 3.001 3.001 0 0 0-6 0zm9.336-6a.333.333 0 0 0-.336-.336h-2a.333.333 0 0 0-.336.336v2c0 .188.148.336.336.336h2a.333.333 0 0 0 .336-.336v-2z"/></svg>
