  <svg width="16" height="16" viewBox="-239.5 160.5 16 16" id="briefcase--dark" x="48" y="48" xmlns="http://www.w3.org/2000/svg"><path
    d="M-233.786 163.833h4.571v-1.166h-4.571v1.166zm10.286 5.833v4.374c0 .402-.141.744-.42 1.03-.28.285-.616.43-1.009.43h-13.144c-.393 0-.729-.145-1.009-.43s-.419-.628-.419-1.03v-4.374h6v1.459c0 .158.056.293.169.409a.545.545 0 0 0 .402.173h2.855a.545.545 0 0 0 .402-.173.565.565 0 0 0 .17-.409v-1.459h6.003zm-6.857 0v1.167h-2.285v-1.167h2.285zm6.857-4.373v3.498h-16v-3.498c0-.403.14-.745.419-1.032.28-.284.616-.429 1.009-.429h3.144v-1.457c0-.243.083-.449.25-.62a.822.822 0 0 1 .606-.255h5.144c.237 0 .439.086.606.255a.857.857 0 0 1 .249.62v1.457h3.145c.393 0 .729.145 1.009.429.278.287.419.63.419 1.032z"/></svg>
