<svg width="16" height="16" viewBox="-7.5 992.5 16 16" id="search" x="832" y="832" xmlns="http://www.w3.org/2000/svg"><path
  fill="#AAA"
  d="M-2.883 994.449c1.299-1.3 2.871-1.949 4.716-1.949 1.845 0 3.418.649 4.717 1.949 1.301 1.301 1.95 2.871 1.95 4.716s-.649 3.416-1.95 4.715c-1.299 1.301-2.872 1.952-4.717 1.952-.978 0-1.9-.201-2.765-.602l-4.018 2.95c-.356.266-.75.367-1.184.299a1.564 1.564 0 0 1-1.05-.633c-.212-.288-.316-.608-.316-.958s.104-.67.316-.957l2.95-4c-.4-.866-.6-1.788-.6-2.767.001-1.844.652-3.414 1.951-4.715zm1.416 8.014c.912.913 2.012 1.369 3.3 1.369 1.289 0 2.389-.456 3.3-1.369.911-.907 1.366-2.008 1.366-3.298 0-1.287-.455-2.389-1.366-3.301-.911-.909-2.011-1.364-3.3-1.364-1.289 0-2.389.455-3.3 1.364-.911.912-1.366 2.014-1.366 3.301 0 1.29.455 2.391 1.366 3.298z"/></svg>
