  <svg width="16" height="16" viewBox="656.5 1056.5 16 16" id="tag--dark" x="976" y="976" xmlns="http://www.w3.org/2000/svg"><path
    d="M661.231 1059.879c0-.373-.132-.691-.396-.955-.264-.265-.583-.396-.956-.396s-.692.132-.956.396a1.301 1.301 0 0 0-.396.955c0 .374.132.692.396.956s.583.396.956.396.691-.132.956-.396.396-.582.396-.956zm11.269 6.083c0 .374-.13.69-.391.951l-5.186 5.195a1.35 1.35 0 0 1-.961.392c-.373 0-.69-.131-.95-.392l-7.551-7.562c-.268-.26-.495-.615-.681-1.066-.187-.45-.28-.862-.28-1.235v-4.394a1.3 1.3 0 0 1 .401-.95c.268-.268.584-.401.951-.401h4.394c.373 0 .785.093 1.235.279.451.188.81.414 1.077.682l7.551 7.541c.261.274.391.595.391.96z"/></svg>
