<svg width="16" height="16" viewBox="-7.5 992.5 16 16" id="clock--light" x="160" y="160" xmlns="http://www.w3.org/2000/svg"><path
  fill="#7a7a7a"
  d="M-3.508 993.575C-2.28 992.858-.944 992.5.5 992.5s2.78.358 4.008 1.075a7.982 7.982 0 0 1 2.917 2.916c.717 1.229 1.075 2.564 1.075 4.009s-.358 2.78-1.075 4.009a7.975 7.975 0 0 1-2.917 2.916c-1.228.717-2.564 1.075-4.008 1.075s-2.781-.358-4.008-1.075a7.982 7.982 0 0 1-2.917-2.916c-.717-1.229-1.075-2.564-1.075-4.009s.358-2.78 1.075-4.009a7.99 7.99 0 0 1 2.917-2.916zM-3.7 1004.7c1.178 1.178 2.578 1.767 4.2 1.767 1.622 0 3.022-.589 4.2-1.767 1.177-1.178 1.767-2.578 1.767-4.2s-.59-3.022-1.767-4.2c-1.178-1.178-2.578-1.767-4.2-1.767-1.623 0-3.022.589-4.2 1.767s-1.767 2.578-1.767 4.2.589 3.022 1.767 4.2zm7.267-1.066a.84.84 0 0 1-.592.232.84.84 0 0 1-.592-.232l-2.633-2.101c-.233-.211-.339-.461-.317-.75l.184-4.233a.866.866 0 0 1 .283-.616.834.834 0 0 1 .633-.233c.233.011.431.1.592.267s.247.361.258.583l.167 3.783 2.067 2.033a.85.85 0 0 1 .233.643.88.88 0 0 1-.283.624z"/></svg>
