<svg width="16" height="16" viewBox="-7.5 992.5 16 16" id="twitter--light" x="1024" y="1024" xmlns="http://www.w3.org/2000/svg"><path
  fill="#FFF"
  d="M6.867 997.234v.43c0 4.336-3.297 9.336-9.328 9.336-1.852 0-3.594-.406-5.039-1.336.258.039.516.055.781.055 1.531 0 2.961-.664 4.07-1.555-1.422-.016-2.648-.984-3.055-2.281a3.227 3.227 0 0 0 1.484-.055 3.28 3.28 0 0 1-2.633-3.219v-.039c.445.242.945.391 1.484.406a3.266 3.266 0 0 1-1.469-2.719c0-.609.172-1.109.445-1.594 1.633 1.984 4.039 3.219 6.758 3.367a3.4 3.4 0 0 1-.07-.758 3.267 3.267 0 0 1 3.273-3.273c.945 0 1.797.406 2.414 1.031a6.571 6.571 0 0 0 2.07-.797 3.252 3.252 0 0 1-1.445 1.82 6.42 6.42 0 0 0 1.891-.523 6.587 6.587 0 0 1-1.631 1.704z"/></svg>
