<?xml version="1.0" encoding="utf-8"?>
<svg width="132pt" height="20pt" viewBox="0 0 198 30" version="1.1" xmlns="http://www.w3.org/2000/svg">
  <g id="surface1">
    <path style="stroke: none; fill-rule: nonzero; fill-opacity: 1; fill: red;" d="M 29.351562 5.398438 L 26.550781 5.398438 L 26.550781 29.550781 L 21.398438 29.550781 L 8.851562 13.050781 L 8.851562 24.101562 L 11.648438 24.101562 L 11.648438 29.5 L 0 29.5 L 0 24.148438 L 2.800781 24.148438 L 2.800781 5.398438 L 0 5.398438 L 0 0 L 8.800781 0 L 20.5 15.351562 L 20.5 5.398438 L 17.699219 5.398438 L 17.699219 0 L 29.300781 0 Z M 47.898438 19 C 47.898438 19.449219 47.898438 19.898438 47.851562 20.351562 L 35.148438 20.351562 C 34.800781 24.449219 36.351562 25.648438 38.699219 25.648438 C 40.648438 25.648438 42.148438 24.351562 42.148438 22.351562 L 47.648438 22.351562 C 47.5 25.949219 45.648438 30.050781 38.398438 30.050781 C 31.148438 30.050781 27.75 24.800781 27.75 19 C 27.75 13.75 31.25 8.199219 38.25 8.199219 C 44.949219 8.148438 47.898438 12.800781 47.898438 19 M 79.5 13.648438 L 77.648438 13.648438 L 72.949219 29.550781 L 66.699219 29.550781 L 63.75 20.851562 L 61.101562 29.550781 L 54.699219 29.550781 L 49.398438 13.699219 L 47.550781 13.699219 L 47.550781 8.300781 L 58.601562 8.300781 L 58.601562 13.648438 L 55.800781 13.648438 L 58.699219 22.101562 L 62.5 8.300781 L 65.898438 8.300781 L 70.550781 22.101562 L 73.050781 13.648438 L 70.25 13.648438 L 70.25 8.300781 L 79.5 8.300781 Z M 87.25 13.898438 C 87.25 14.648438 87.851562 15.148438 89.949219 15.851562 L 92.949219 16.851562 C 95.699219 17.75 99 19.800781 99 23.550781 C 99 27.949219 95.699219 30.050781 91.648438 30.050781 C 88.398438 30.050781 85.898438 28.449219 85.199219 27.75 L 85.199219 29.5 L 79.800781 29.5 L 79.800781 22.199219 L 85.101562 22.199219 C 85.25 24.601562 87.398438 25.851562 89.351562 25.851562 C 90.949219 25.851562 91.699219 25.148438 91.699219 24.351562 C 91.699219 23.351562 91.101562 22.800781 88.449219 21.949219 L 85.800781 21.050781 C 83.101562 20.199219 80.101562 18.199219 80.101562 14.648438 C 80.101562 10.300781 83.949219 8.101562 87.25 8.101562 C 90.648438 8.101562 92.300781 9.050781 93.148438 10 L 93.199219 8.351562 L 98.5 8.351562 L 98.5 15 L 92.898438 15 C 92.800781 13.199219 91.050781 12.398438 89.300781 12.398438 C 87.898438 12.398438 87.25 13.050781 87.25 13.898438 M 131.398438 13.648438 L 129.550781 13.648438 L 124.851562 29.550781 L 118.601562 29.550781 L 115.648438 20.851562 L 113 29.550781 L 106.601562 29.550781 L 101.300781 13.699219 L 99.449219 13.699219 L 99.449219 8.300781 L 110.5 8.300781 L 110.5 13.648438 L 107.699219 13.648438 L 110.601562 22.101562 L 114.398438 8.300781 L 117.800781 8.300781 L 122.449219 22.148438 L 124.949219 13.699219 L 122.148438 13.699219 L 122.148438 8.300781 L 131.398438 8.300781 Z M 151 18.949219 C 151 19.398438 151 19.851562 150.949219 20.300781 L 138.25 20.300781 C 137.898438 24.398438 139.449219 25.601562 141.800781 25.601562 C 143.75 25.601562 145.25 24.300781 145.25 22.300781 L 150.75 22.300781 C 150.601562 25.898438 148.75 30 141.5 30 C 134.25 30 130.851562 24.75 130.851562 18.949219 C 130.851562 13.699219 134.351562 8.148438 141.351562 8.148438 C 148.050781 8.101562 151 12.75 151 18.949219 M 171.949219 18.898438 C 171.949219 19.351562 171.949219 19.800781 171.898438 20.25 L 159.199219 20.25 C 158.851562 24.351562 160.398438 25.550781 162.75 25.550781 C 164.699219 25.550781 166.199219 24.25 166.199219 22.25 L 171.699219 22.25 C 171.550781 25.851562 169.699219 29.949219 162.449219 29.949219 C 155.199219 29.949219 151.800781 24.699219 151.800781 18.898438 C 151.800781 13.648438 155.300781 8.101562 162.300781 8.101562 C 169 8.050781 171.949219 12.699219 171.949219 18.898438 M 194.949219 29.5 L 188.550781 29.5 L 181.898438 20.851562 L 179.75 22.449219 L 179.75 24.148438 L 181.648438 24.148438 L 181.648438 29.5 L 171.851562 29.5 L 171.851562 24.148438 L 173.699219 24.148438 L 173.699219 5.300781 L 170.898438 5.300781 L 170.898438 0 L 179.800781 0 L 179.800781 16.949219 L 184.25 13.699219 L 181.449219 13.699219 L 181.449219 8.300781 L 193.398438 8.300781 L 193.398438 13.699219 L 191.550781 13.699219 L 186.898438 17.199219 L 192.25 24.148438 L 195.050781 24.148438 Z M 197.800781 28.300781 C 197.800781 28.550781 197.75 28.75 197.601562 28.898438 C 197.5 29.101562 197.351562 29.25 197.148438 29.351562 C 196.949219 29.449219 196.75 29.550781 196.5 29.550781 C 196.25 29.550781 196.050781 29.5 195.898438 29.351562 C 195.699219 29.25 195.550781 29.101562 195.449219 28.898438 C 195.351562 28.699219 195.25 28.5 195.25 28.300781 C 195.25 28.050781 195.300781 27.851562 195.449219 27.699219 C 195.550781 27.5 195.699219 27.351562 195.898438 27.25 C 196.101562 27.148438 196.300781 27.050781 196.5 27.050781 C 196.75 27.050781 196.949219 27.101562 197.148438 27.25 C 197.351562 27.351562 197.5 27.5 197.601562 27.699219 C 197.75 27.898438 197.800781 28.101562 197.800781 28.300781 M 197.300781 29 C 197.5 28.800781 197.601562 28.550781 197.601562 28.300781 C 197.601562 28 197.5 27.800781 197.300781 27.601562 C 197.101562 27.398438 196.851562 27.300781 196.601562 27.300781 C 196.351562 27.300781 196.101562 27.398438 195.898438 27.601562 C 195.699219 27.800781 195.601562 28.050781 195.601562 28.300781 C 195.601562 28.601562 195.699219 28.800781 195.898438 29 C 196.101562 29.199219 196.351562 29.300781 196.601562 29.300781 C 196.851562 29.300781 197.101562 29.199219 197.300781 29 M 196.800781 28.398438 C 196.851562 28.449219 196.898438 28.449219 196.898438 28.449219 C 196.949219 28.5 197 28.550781 197 28.601562 C 197 28.601562 197.101562 28.75 197.199219 29 L 196.800781 29 C 196.648438 28.75 196.601562 28.601562 196.550781 28.550781 C 196.5 28.5 196.449219 28.449219 196.398438 28.449219 C 196.398438 28.449219 196.351562 28.449219 196.351562 28.449219 L 196.351562 29 L 196.050781 29 L 196.050781 27.699219 L 196.648438 27.699219 C 196.851562 27.699219 196.949219 27.75 197 27.800781 C 197.101562 27.898438 197.101562 27.949219 197.101562 28.101562 C 197.101562 28.199219 197.050781 28.300781 197 28.351562 C 196.949219 28.300781 196.898438 28.351562 196.800781 28.398438 M 196.75 28.148438 C 196.800781 28.101562 196.800781 28.050781 196.800781 28 C 196.800781 27.949219 196.75 27.898438 196.75 27.851562 C 196.699219 27.800781 196.648438 27.800781 196.550781 27.800781 L 196.398438 27.800781 L 196.398438 28.148438 L 196.550781 28.148438 C 196.648438 28.199219 196.699219 28.199219 196.75 28.148438 M 159.199219 16.75 L 166.148438 16.75 C 166.148438 13.75 164.199219 12.550781 162.75 12.550781 C 161.050781 12.601562 159.300781 13.949219 159.199219 16.75 M 138.25 16.800781 L 145.199219 16.800781 C 145.199219 13.800781 143.25 12.601562 141.800781 12.601562 C 140.148438 12.601562 138.398438 14 138.25 16.800781 M 35.148438 16.851562 L 42.101562 16.851562 C 42.101562 13.851562 40.148438 12.648438 38.699219 12.648438 C 37.050781 12.648438 35.300781 14.050781 35.148438 16.851562 "/>
  </g>
</svg>
