<?xml version="1.0" encoding="utf-8"?>
<svg viewBox="98.184 97.529 201.608 201.608" width="201.608" height="201.608" xmlns="http://www.w3.org/2000/svg">
  <circle style="fill: rgb(44, 160, 28);" cx="198.988" cy="198.333" r="100.804"/>
  <path d="M 186.253 159.878 L 198.553 159.878 L 198.553 270.878 L 185.053 270.878 L 185.053 229.928 C 183.953 231.028 182.676 232.151 181.223 233.298 C 179.776 234.451 178.126 235.501 176.273 236.448 C 174.426 237.401 172.403 238.178 170.203 238.778 C 168.003 239.378 165.653 239.678 163.153 239.678 C 158.653 239.678 154.276 238.805 150.023 237.058 C 145.776 235.305 142.053 232.701 138.853 229.248 C 135.653 225.801 133.076 221.578 131.123 216.578 C 129.176 211.578 128.203 205.778 128.203 199.178 C 128.203 193.078 129.153 187.505 131.053 182.458 C 132.953 177.405 135.553 173.078 138.853 169.478 C 142.153 165.878 146.003 163.078 150.403 161.078 C 154.803 159.078 159.503 158.078 164.503 158.078 C 169.003 158.078 173.076 158.855 176.723 160.408 C 180.376 161.955 183.553 163.878 186.253 166.178 L 186.253 159.878 Z M 165.853 169.778 C 162.653 169.778 159.603 170.428 156.703 171.728 C 153.803 173.028 151.253 174.928 149.053 177.428 C 146.853 179.928 145.13 182.951 143.883 186.498 C 142.63 190.051 142.003 194.128 142.003 198.728 C 142.003 203.228 142.653 207.278 143.953 210.878 C 145.253 214.478 147.026 217.528 149.273 220.028 C 151.526 222.528 154.103 224.428 157.003 225.728 C 159.903 227.028 162.953 227.678 166.153 227.678 C 170.153 227.678 173.803 226.728 177.103 224.828 C 180.403 222.928 183.053 220.728 185.053 218.228 L 185.053 176.078 C 182.353 174.178 179.376 172.651 176.123 171.498 C 172.876 170.351 169.453 169.778 165.853 169.778 ZM 202.541 237.878 L 202.541 126.878 L 216.041 126.878 L 216.041 167.978 C 217.041 166.878 218.291 165.728 219.791 164.528 C 221.291 163.328 222.964 162.251 224.811 161.298 C 226.664 160.351 228.741 159.578 231.041 158.978 C 233.341 158.378 235.841 158.078 238.541 158.078 C 243.041 158.078 247.364 158.978 251.511 160.778 C 255.664 162.578 259.314 165.178 262.461 168.578 C 265.614 171.978 268.141 176.178 270.041 181.178 C 271.941 186.178 272.891 191.828 272.891 198.128 C 272.891 204.328 271.891 209.978 269.891 215.078 C 267.891 220.178 265.241 224.555 261.941 228.208 C 258.641 231.855 254.864 234.678 250.611 236.678 C 246.364 238.678 242.041 239.678 237.641 239.678 C 233.141 239.678 228.914 238.878 224.961 237.278 C 221.014 235.678 217.741 233.728 215.141 231.428 L 215.141 237.878 L 202.541 237.878 Z M 259.091 198.578 C 259.091 194.078 258.464 190.051 257.211 186.498 C 255.964 182.951 254.264 179.928 252.111 177.428 C 249.964 174.928 247.464 173.028 244.611 171.728 C 241.764 170.428 238.741 169.778 235.541 169.778 C 231.241 169.778 227.367 170.851 223.921 172.998 C 220.467 175.151 217.841 177.478 216.041 179.978 L 216.041 221.678 C 218.341 223.478 221.041 224.928 224.141 226.028 C 227.241 227.128 230.541 227.678 234.041 227.678 C 237.641 227.678 240.991 226.978 244.091 225.578 C 247.191 224.178 249.841 222.205 252.041 219.658 C 254.241 217.105 255.964 214.051 257.211 210.498 C 258.464 206.951 259.091 202.978 259.091 198.578 Z" transform="matrix(1, 0, 0, 1, 0, 0)" style="fill: rgb(255, 255, 255); white-space: pre;"/>
</svg>